<svg xmlns="http://www.w3.org/2000/svg" width="48" height="48" viewBox="0 0 48 48">
    <defs>
        <linearGradient id="prefix__a" x1="35.841%" x2="94.436%" y1="64.18%" y2="5.564%">
            <stop offset="0%" stop-color="#929292"/>
            <stop offset="100%" stop-color="#696969"/>
        </linearGradient>
    </defs>
    <g fill="none">
        <path fill="#C60000" d="M4.96 4.96L0.01 4.96 0.01 0.01 18.53 0.01 26.61 0.01 47.99 21.39 47.99 29.47 47.99 47.99 43.04 47.99 43.04 43.04z"/>
        <g style="mix-blend-mode:overlay">
            <path fill="#676767" d="M0 .01H18.53V4.97H0zM43.04 29.47H48V48H43.04z"/>
            <path fill="url(#prefix__a)" d="M26.61 0L48 21.39 48 47.99 0.01 0z"/>
            <path fill="#333" d="M0 1.23L46.75 48 48 47.99 0.01 0z" opacity=".25"/>
        </g>
        <path fill="#FFF" d="M32.81 11c.004-.109-.013-.217-.05-.32-.033-.109-.091-.208-.17-.29-.079-.08-.17-.148-.27-.2-.097-.05-.202-.08-.31-.09-.11-.015-.22-.015-.33 0-.108.035-.207.093-.29.17l-5.6 4.93 1.32-3.68c.044-.154.044-.316 0-.47-.049-.211-.187-.391-.38-.491-.192-.1-.419-.11-.62-.029l-3.65 1.29.24-.27 1.3-1.46.56-.62L25 9l.21-.22c.165-.16.256-.38.25-.61-.005-.471-.389-.85-.86-.85-.23-.006-.45.085-.61.25l-.18.2-.37.41-.5.57-.12.12-.49.55c-.22.24-.45.49-.68.76-.23.27-.45.52-.68.76l-1.66 1.84-.26.28c-.09.086-.159.192-.2.31-.037.106-.054.218-.05.33.007.108.034.213.08.31.11.242.323.421.58.49.16.049.33.049.49 0l5.22-2-2 5.19c-.054.152-.054.318 0 .47.044.152.127.29.24.4.144.136.325.227.52.26.223.027.447-.038.62-.18l8-7.06c.08-.079.148-.17.2-.27.033-.1.053-.205.06-.31zM33.91 22.6c.003-.28-.044-.557-.14-.82-.096-.262-.213-.517-.35-.76-.143-.257-.304-.504-.48-.74-.17-.23-.33-.46-.5-.68-.17-.22-.41-.56-.56-.78-.13-.197-.244-.404-.34-.62-.068-.14-.102-.294-.1-.45.006-.117.056-.228.14-.31.1-.108.234-.178.38-.2.154-.037.316-.037.47 0 .185.06.36.148.52.26.382.258.72.575 1 .94.14.176.263.363.37.56.106.172.196.352.27.54.058.162.102.33.13.5v.05c.027.1.07.195.13.28.063.097.149.176.25.23.101.06.213.101.33.12.115.03.235.03.35 0 .144-.039.275-.115.38-.22.104-.105.177-.236.21-.38.035-.138.035-.282 0-.42-.15-.518-.373-1.013-.66-1.47-.502-.835-1.186-1.546-2-2.08-.308-.209-.645-.37-1-.48-.4-.1-.82-.1-1.22 0-.378.113-.722.32-1 .6-.212.215-.384.465-.51.74-.1.241-.15.5-.15.76 0 .259.043.516.13.76.09.252.2.496.33.73.133.247.284.484.45.71.16.227.32.447.48.66.16.213.36.493.6.84.146.214.27.442.37.68.073.163.107.341.1.52-.051.143-.155.26-.29.33-.141.153-.326.258-.53.3-.208.033-.42.016-.62-.05-.24-.079-.47-.19-.68-.33-.439-.291-.833-.645-1.17-1.05-.137-.18-.264-.367-.38-.56-.106-.172-.196-.352-.27-.54-.062-.155-.11-.316-.14-.48-.014-.082-.038-.163-.07-.24-.112-.204-.304-.353-.53-.41-.143-.045-.297-.045-.44 0-.085.02-.166.054-.24.1l-.16.14c-.098.103-.173.226-.22.36-.04.15-.04.31 0 .46.065.225.146.446.24.66.116.247.246.488.39.72.157.25.327.49.51.72.193.233.393.453.6.66.16.16.34.32.52.47.18.15.38.28.57.4.19.12.39.23.58.33.193.09.394.164.6.22.459.12.941.12 1.4 0 .454-.112.867-.351 1.19-.69.239-.232.432-.507.57-.81.111-.246.176-.51.19-.78zM33.4 14.44l4.19 4.15c.149.148.35.23.56.23.212.002.415-.085.56-.24l1-1c.274-.314.257-.787-.039-1.08-.296-.294-.77-.307-1.081-.03l-.47.48-3.63-3.6c-.076-.071-.164-.129-.26-.17-.095-.04-.197-.06-.3-.06-.103.009-.204.033-.3.07-.092.038-.177.092-.25.16-.155.149-.242.355-.24.57.02.2.113.384.26.52zM34.83 27.94c0-.11-.023-.22-.07-.32-.038-.111-.103-.21-.19-.29-.169-.148-.386-.23-.61-.23-.226-.003-.443.088-.6.25-.159.16-.248.375-.25.6-.001.232.088.454.25.62.08.084.18.146.29.18.1.048.21.072.32.07.113-.009.224-.032.33-.07.103-.048.197-.112.28-.19.078-.086.142-.184.19-.29.042-.105.063-.217.06-.33zM34.76 26.38c.015.19.1.369.24.5.133.136.31.221.5.24.224.013.442-.07.6-.23l5.37-5.2c.088-.098.153-.214.19-.34.025-.109.025-.221 0-.33-.015-.107-.045-.212-.09-.31-.102-.189-.259-.342-.45-.44-.097-.05-.202-.08-.31-.09-.112-.013-.226.004-.33.05-.121.04-.231.108-.32.2L35 25.78c-.166.154-.255.374-.24.6z"/>
    </g>
</svg>
