<svg height="26" viewBox="0 0 70 26" width="70" xmlns="http://www.w3.org/2000/svg"><path d="m51.2747712 10.7049764c-1.6122775.6369368-1.5929056 1.8514654-1.5259624 2.2937401.0684145.4509717.6417232.6788877 1.1963957.1435026.8432886-.8134374 1.7603864-1.0797231 2.2976487-1.0513295.3099496.0161153.6363285-.0869713.6306886-.3125851-.0152032-.5883352-.7167585-1.81667693-2.5987706-1.0733281zm4.7600807 5.7728478c.2074505.1652455.9050824.8794333.990907 1.5769943.3619349 2.9360487-9.3659223 5.7255252-10.981878-2.431871-.7795331-3.9354512.9965469-6.81496863 4.6874976-7.51866875 3.5364663-.67428337 5.6482434 2.07912565 5.922637 3.72902235.3222103 1.9397157-.3965099 2.5610489-1.1826637 2.7058306l-5.7725665 1.1324174c1.3393551 4.1329273 5.8905141 1.6263633 6.3360666.8062751zm7.2043154-5.7728478c-1.6125227.6369368-1.5929056 1.8514654-1.5262076 2.2937401.0684145.4509717.6419684.6788877 1.1966409.1435026.8430434-.8134374 1.7603864-1.0797231 2.2976487-1.0513295.3099496.0161153.6363285-.0869713.6306886-.3125851-.0152032-.5883352-.7170037-1.81667693-2.5987706-1.0733281zm5.7509877 7.3498421c.3619349 2.9360487-9.3659223 5.7255252-10.981878-2.431871-.7797783-3.9354512.9965469-6.81496863 4.6874976-7.51866875 3.5364663-.67428337 5.6479981 2.07912565 5.9223918 3.72902235.3224555 1.9397157-.3962647 2.5610489-1.1824185 2.7058306l-5.7728117 1.1324174c1.3396003 4.1329273 5.890514 1.6263633 6.3363118.8062751.2074505.1652455.9050824.8794333.990907 1.5769943zm-39.8657345-10.77179239c-1.0168996 0-2.2047129-.29360589-2.2047129-1.12117512 0-.86849163.5272086-1.16185099 2.0892174-1.16185099 1.5296406 0 2.0315923.32737919 2.0315923 1.14163631 0 .27733554.0024521 1.1413898-1.9160968 1.1413898zm1.8094604 2.84401839s-.5997918 9.1947669.5066106 9.7378475c-.996792 1.3110166-2.9673262 1.1265789-2.975173 1.1258115-1.5470508-.2616917-1.484031-1.4581062-1.4320457-3.4094106.0205979-.7725405.0291803-6.1312089-.0948976-7.75712523-.0343299-.44919905-.0443836-1.15727591.1802318-1.41282822.2400638-.27269145.5769869-.41133945 1.4303292-.41133945 1.0588311 0 1.6784851.16013588 2.0097683.51852305.2844474.30824878.4036211.81679531.3751764 1.60852145zm-9.8422075 5.2301631v-.2662065c-3.073994-.7262501-3.6294022.9318505-3.5921297 1.5701323.0372724.6380261.6338764 1.4517331 1.5070809 1.4517331 1.7260565 0 2.0850488-2.0288974 2.0850488-2.7556589zm3.8731442-1.6279255c0 2.9410573-.3052906 5.8823703.3153443 6.0751846-.2547766.3615907-.6051864 1.0607343-2.0529258 1.1799007-1.8425328.151643-2.1318845-.8134513-2.1318845-2.3084014 0 0-.8207289 2.3196531-3.4266108 2.3196531-2.1863218 0-3.8012967-1.9486006-3.7063991-4.1432058.2454585-5.6826514 7.1293317-3.1366844 7.1293317-3.1366844v-.6556709c0-2.4283349-3.6995332-2.1388578-5.675462-.9067898-.5735539-.3280912-1.7145315-2.44137672-.1110816-3.41516561 1.2074303-.73315461 9.6596878-2.56872622 9.6596878 4.99117951zm-17.24128941-1.2701642c.71087338 1.5168405 4.82898571 5.92438 5.55383621 5.6184481.180477.9436804-.7795331 2.9180629-2.6870474 2.9180629-3.57619091 0-4.30521008-5.821088-6.41330889-6.6106931 0 0-.0073564 3.1759233-.00980853 4.3449234-.00269735 1.1690001.09857575 1.5395203-.28297616 1.9487443-.19249245.2060911-.49508567.306425-.92518981.306425h-1.61546528c-.43721532 0-.751824-.1045247-.96123616-.3202301-.37787371-.3887628-.39405779-1.1049048-.37860935-1.8008321.09269063-2.6602024.19175681-8.3614814.16674505-9.20236275-.00441384-.2179241-.02746389-2.66759805-.0497783-2.88848039-.0571347-.56453188-.11623111-1.14878541.15791737-1.45348471.19053074-.21200761.56472625-.31949054 1.11253278-.31949054h1.61571048c.4457978 0 .76629159.10674337.9801176.32639311.3815519.39246059.38547532 1.34846699.37125294 1.98942022-.033349.57537879-.18219348 3.78482886-.18219348 3.78482886s2.55291575-1.62752819 4.16862624-5.14660795c.25820961-.5623132.39283171-.94984339 2.5345247-.94984339 1.1436749 0 1.9339974.24380875 2.1684213.66905657.1812127.32885831-.0076016.76248782-.200094 1.0716245-.9565771 1.57945667-5.12397731 5.71409807-5.12397731 5.71409807zm30.64244351 5.3847251c1.1848707 0 2.145126-1.4007358 2.145126-3.128532 0-1.7275495-.9602553-3.1282853-2.145126-3.1282853s-2.1453713 1.4007358-2.1453713 3.1282853c0 1.7277962.9605006 3.128532 2.1453713 3.128532zm6.3081123-9.37252335c0 2.24083195-.5948875 11.14940325.36782 11.45179845-.1760632.2345659-.6728653 1.0768819-2.539429 1.0768819-1.9187942 0-2.0026571-1.6912917-2.0019215-2.2753632 0 0-.6108263 2.2753632-2.9994492 2.2753632-2.1338462 0-4.7416897-2.1808956-4.7416897-6.6070629 0-2.8421692 1.4308197-5.9275371 4.8356064-5.9275371 1.9303192 0 2.9160767 1.4392135 2.9160767 1.4392135.153994-2.00404622-.2746389-3.96542167.0053947-4.36746418.5512395-.79150576 2.9859624-.61514969 3.7252806-.07103573.5890023.43386059.432311 1.69252495.432311 3.00520606z" fill="#4b68ca" fill-rule="evenodd"/></svg>